<svg width="640" height="400" viewBox="0 0 640 400" fill="none" xmlns="http://www.w3.org/2000/svg" role="img" aria-label="Your chat loop, with Vendo tools and a rendered result">
  <rect width="640" height="400" fill="#f7f7fa"/>
  <!-- user bubble (right) -->
  <rect x="300" y="52" width="280" height="48" rx="24" fill="#e9e9f0"/>
  <rect x="326" y="70" width="200" height="12" rx="6" fill="#d5d5e1"/>
  <!-- agent bubble (left) -->
  <rect x="60" y="124" width="300" height="48" rx="24" fill="#ffffff" stroke="#e3e3ec" stroke-width="2"/>
  <rect x="86" y="142" width="180" height="12" rx="6" fill="#ececf2"/>
  <!-- tool chips -->
  <rect x="60" y="200" width="110" height="38" rx="19" fill="#f0f0f5"/>
  <rect x="84" y="213" width="62" height="12" rx="6" fill="#dcdce6"/>
  <rect x="182" y="200" width="110" height="38" rx="19" fill="#f0f0f5"/>
  <rect x="206" y="213" width="62" height="12" rx="6" fill="#dcdce6"/>
  <rect x="304" y="200" width="170" height="38" rx="19" fill="#f4f0ff" stroke="#6c3bff" stroke-width="2"/>
  <text x="389" y="226" text-anchor="middle" font-family="ui-monospace, Menlo, monospace" font-size="22" fill="#6c3bff">vendo_ui</text>
  <!-- rendered result card -->
  <rect x="60" y="268" width="520" height="92" rx="14" fill="#ffffff" stroke="#6c3bff" stroke-width="2.5"/>
  <path transform="translate(94,302)" d="M0,-11 C1.7,-4 4,-1.7 11,0 C4,1.7 1.7,4 0,11 C-1.7,4 -4,1.7 -11,0 C-4,-1.7 -1.7,-4 0,-11 Z" fill="#6c3bff"/>
  <rect x="118" y="296" width="150" height="14" rx="7" fill="#e6ddff"/>
  <rect x="92" y="322" width="130" height="26" rx="8" fill="#f9f7ff" stroke="#ece4fd" stroke-width="2"/>
  <rect x="234" y="322" width="130" height="26" rx="8" fill="#f9f7ff" stroke="#ece4fd" stroke-width="2"/>
  <rect x="482" y="300" width="14" height="46" rx="4" fill="#6c3bff"/>
  <rect x="504" y="316" width="14" height="30" rx="4" fill="#a78bfa"/>
  <rect x="526" y="290" width="14" height="56" rx="4" fill="#6c3bff"/>
</svg>
